<svg width="7" height="4" viewBox="0 0 7 4" fill="none" xmlns="http://www.w3.org/2000/svg">
<path d="M6.68769 0.495902C6.63746 0.44684 6.57003 0.419373 6.49982 0.419373C6.4296 0.419373 6.36217 0.44684 6.31194 0.495902L3.50001 3.23696L0.688632 0.495902C0.638402 0.44684 0.570972 0.419373 0.500757 0.419373C0.430542 0.419373 0.363112 0.44684 0.312882 0.495902C0.288389 0.51975 0.268921 0.548263 0.255629 0.579758C0.242336 0.611253 0.235488 0.645092 0.235488 0.679277C0.235488 0.713463 0.242336 0.747302 0.255629 0.778797C0.268921 0.810292 0.288389 0.838805 0.312882 0.862652L3.30369 3.77753C3.35622 3.82872 3.42666 3.85737 3.50001 3.85737C3.57335 3.85737 3.6438 3.82872 3.69632 3.77753L6.68713 0.862652C6.71163 0.838804 6.73109 0.810292 6.74439 0.778796C6.75768 0.747301 6.76453 0.713462 6.76453 0.679277C6.76453 0.645092 6.75768 0.611253 6.74439 0.579758C6.73109 0.548263 6.71163 0.51975 6.68713 0.495902L6.68769 0.495902Z" fill="#7A7467"/>
</svg>
