<svg width="86" height="475" viewBox="0 0 86 475" fill="none" xmlns="http://www.w3.org/2000/svg">
<path fill-rule="evenodd" clip-rule="evenodd" d="M-198.691 461.043C-322.153 434.91 -401.053 313.639 -374.92 190.178C-363.374 135.629 -333.256 89.7798 -292.583 57.8445L-292.631 57.7538L-293.842 53.8127L-295.862 50.2594C-338.802 83.3627 -370.639 131.321 -382.747 188.521C-409.795 316.305 -328.132 441.821 -200.348 468.869C-72.5634 495.917 52.9527 414.254 80.0005 286.47C107.048 158.686 25.3854 33.1697 -102.399 6.12187C-122.455 1.87662 -142.455 0.309393 -162.028 1.17818L-161.4 2.19566L-159.034 9.07044C-140.965 8.47858 -122.534 10.037 -104.055 13.9485C19.4063 40.0814 98.3068 161.352 72.1739 284.813C46.041 408.275 -75.2293 487.175 -198.691 461.043Z" fill="#F1E8D8"/>
</svg>
